HIERARCHY
ROOT Hips
{
	OFFSET 0.000000 0.000000 0.000000
	CHANNELS 6 Xposition Yposition Zposition Zrotation Yrotation Xrotation 
	JOINT LHipJoint
	{
		OFFSET 0.000000 0.000000 0.000000
		CHANNELS 3 Zrotation Yrotation Xrotation
		JOINT LeftUpLeg
		{
			OFFSET 1.363060 -1.794630 0.839290
			CHANNELS 3 Zrotation Yrotation Xrotation
			JOINT LeftLeg
			{
				OFFSET 2.448110 -6.726130 0.000000
				CHANNELS 3 Zrotation Yrotation Xrotation
				JOINT LeftFoot
				{
					OFFSET 2.562200 -7.039590 0.000000
					CHANNELS 3 Zrotation Yrotation Xrotation
					JOINT LeftToeBase
					{
						OFFSET 0.157640 -0.433110 2.322550
						CHANNELS 3 Zrotation Yrotation Xrotation
						End Site
						{
							OFFSET 0.000000 0.000000 0.000000
						}
					}
				}
			}
		}
	}
	JOINT RHipJoint
	{
		OFFSET 0.000000 0.000000 0.000000
		CHANNELS 3 Zrotation Yrotation Xrotation
		JOINT RightUpLeg
		{
			OFFSET -1.305520 -1.794630 0.839290
			CHANNELS 3 Zrotation Yrotation Xrotation
			JOINT RightLeg
			{
				OFFSET -2.542530 -6.985550 0.000000
				CHANNELS 3 Zrotation Yrotation Xrotation
				JOINT RightFoot
				{
					OFFSET -2.568260 -7.056230 0.000000
					CHANNELS 3 Zrotation Yrotation Xrotation
					JOINT RightToeBase
					{
						OFFSET -0.164730 -0.452590 2.363150
						CHANNELS 3 Zrotation Yrotation Xrotation
						End Site
						{
							OFFSET 0.000000 0.000000 0.000000
						}
					}
				}
			}
		}
	}
	JOINT LowerBack
	{
		OFFSET 0.000000 0.000000 0.000000
		CHANNELS 3 Zrotation Yrotation Xrotation
		JOINT Spine
		{
			OFFSET 0.028270 2.035590 -0.193380
			CHANNELS 3 Zrotation Yrotation Xrotation
			JOINT Spine1
			{
				OFFSET 0.056720 2.048850 -0.042750
				CHANNELS 3 Zrotation Yrotation Xrotation
				JOINT Neck
				{
					OFFSET 0.000000 0.000000 0.000000
					CHANNELS 3 Zrotation Yrotation Xrotation
					JOINT Neck1
					{
						OFFSET -0.054170 1.746240 0.172020
						CHANNELS 3 Zrotation Yrotation Xrotation
						JOINT Head
						{
							OFFSET 0.104070 1.761360 -0.123970
							CHANNELS 3 Zrotation Yrotation Xrotation
							End Site
							{
								OFFSET 0.000000 0.000000 0.000000
							}
						}
					}
				}
				JOINT LeftShoulder
				{
					OFFSET 0.000000 0.000000 0.000000
					CHANNELS 3 Zrotation Yrotation Xrotation
					JOINT LeftArm
					{
						OFFSET 3.362410 1.200890 -0.311210
						CHANNELS 3 Zrotation Yrotation Xrotation
						JOINT LeftForeArm
						{
							OFFSET 4.983000 -0.000000 -0.000000
							CHANNELS 3 Zrotation Yrotation Xrotation
							JOINT LeftHand
							{
								OFFSET 3.483560 -0.000000 -0.000000
								CHANNELS 3 Zrotation Yrotation Xrotation
								JOINT LeftFingerBase
								{
									OFFSET 0.000000 0.000000 0.000000
									CHANNELS 3 Zrotation Yrotation Xrotation
									JOINT LeftHandIndex1
									{
										OFFSET 0.715260 -0.000000 -0.000000
										CHANNELS 3 Zrotation Yrotation Xrotation
										End Site
										{
											OFFSET 0.000000 0.000000 0.000000
										}
									}
								}
								JOINT LThumb
								{
									OFFSET 0.000000 0.000000 0.000000
									CHANNELS 3 Zrotation Yrotation Xrotation
									End Site
									{
										OFFSET 0.000000 0.000000 0.000000
									}
								}
							}
						}
					}
				}
				JOINT RightShoulder
				{
					OFFSET 0.000000 0.000000 0.000000
					CHANNELS 3 Zrotation Yrotation Xrotation
					JOINT RightArm
					{
						OFFSET -3.136600 1.374050 -0.404650
						CHANNELS 3 Zrotation Yrotation Xrotation
						JOINT RightForeArm
						{
							OFFSET -5.241900 -0.000000 -0.000000
							CHANNELS 3 Zrotation Yrotation Xrotation
							JOINT RightHand
							{
								OFFSET -3.444170 -0.000000 -0.000000
								CHANNELS 3 Zrotation Yrotation Xrotation
								JOINT RightFingerBase
								{
									OFFSET 0.000000 0.000000 0.000000
									CHANNELS 3 Zrotation Yrotation Xrotation
									JOINT RightHandIndex1
									{
										OFFSET -0.622530 -0.000000 -0.000000
										CHANNELS 3 Zrotation Yrotation Xrotation
										End Site
										{
											OFFSET 0.000000 0.000000 0.000000
										}
									}
								}
								JOINT RThumb
								{
									OFFSET 0.000000 0.000000 0.000000
									CHANNELS 3 Zrotation Yrotation Xrotation
									End Site
									{
										OFFSET 0.000000 0.000000 0.000000
									}
								}
							}
						}
					}
				}
			}
		}
	}
}
MOTION
Frames: 12
Frame Time: 0.008333
13.783557 16.461100 1.026616 125.615079 -86.809936 -91.558965 -9.086298 0.067314 3.008415 -12.366850 -3.765201 -55.157068 -2.223623 1.023675 35.201827 3.721501 13.532806 -17.618811 -1.859900 0.000000 -37.907900 8.756108 -0.102300 3.244974 7.634859 1.485579 -56.951268 2.426742 -2.355047 38.092429 -2.194709 -4.167530 -17.725170 0.673700 -0.000001 -56.736200 0.480918 -2.099388 -5.318216 -0.496873 -2.315826 -4.169646 -5.309038 -2.476898 -0.116467 10.053587 -9.400149 -13.302072 -2.572948 -0.094638 -1.956136 0.000000 0.000000 0.000000 2.402057 7.604044 3.467339 -74.019510 -1.704556 -14.204140 -0.805838 -48.450590 -0.082037 27.312921 -7.141026 -1.800641 -0.150694 0.222920 -0.000000 0.000000 0.000000 0.000000 0.000000 0.000000 0.000000 10.897586 -5.202076 2.401462 74.019515 16.367458 -18.171564 0.475075 45.057920 -0.077607 -17.861458 14.399222 -2.351871 0.132090 -0.375015 0.000000 0.000000 0.000000 0.000000 0.000000 0.000000 0.000000 
13.780791 16.374165 1.027944 123.387905 -86.740990 -88.560161 -9.006805 0.045846 3.074379 -12.524240 -4.234095 -57.050135 -2.187871 1.246826 37.220193 3.793447 13.467198 -18.451568 -2.063100 -0.000000 -37.604500 8.799538 0.001468 3.299917 7.498765 1.515377 -59.022066 2.357613 -2.641598 40.319515 -2.219968 -3.992078 -18.596810 0.767600 0.000000 -56.572400 0.442302 -2.127424 -5.397718 -0.511049 -2.345234 -4.191309 -5.303501 -2.511676 -0.067155 10.148625 -9.518950 -13.541349 -2.571316 -0.090621 -2.041637 0.000000 0.000000 0.000000 2.285515 7.725473 3.543920 -74.225774 -1.398514 -13.871163 -0.831200 -47.254468 -0.079008 27.270086 -7.122102 -1.790976 -0.146556 0.215184 -0.000000 0.000000 0.000000 0.000000 0.000000 0.000000 0.000000 11.112653 -5.344847 2.516493 74.303647 15.899278 -17.987952 0.522562 43.783417 -0.075074 -17.923938 14.267685 -2.337580 0.134042 -0.365588 0.000000 0.000000 0.000000 0.000000 0.000000 0.000000 0.000000 
13.778121 16.283230 1.029268 120.949466 -86.675714 -85.354382 -8.930428 0.022787 3.140981 -12.663887 -4.717859 -58.952028 -2.141639 1.476114 39.262954 3.862769 13.401244 -19.277841 -2.264400 -0.000000 -37.347600 8.844210 0.110269 3.353561 7.357144 1.541945 -61.087196 2.277674 -2.929674 42.551820 -2.250038 -3.849390 -19.458563 0.859500 0.000000 -56.427900 0.407160 -2.158940 -5.475287 -0.523992 -2.378307 -4.212916 -5.296274 -2.550054 -0.019176 10.243624 -9.632649 -13.771949 -2.568394 -0.086624 -2.124716 0.000000 0.000000 0.000000 2.170886 7.824924 3.622156 -74.394064 -1.089513 -13.603146 -0.855884 -46.016938 -0.076092 27.211328 -7.073406 -1.773013 -0.142352 0.207598 -0.000000 0.000000 0.000000 0.000000 0.000000 0.000000 0.000000 11.322984 -5.488350 2.633049 74.530518 15.418160 -17.807561 0.573974 42.477174 -0.072252 -17.919267 14.143517 -2.315588 0.135573 -0.356254 0.000000 0.000000 0.000000 0.000000 0.000000 0.000000 0.000000 
13.775345 16.188448 1.030589 118.317439 -86.610442 -81.957400 -8.856930 -0.001954 3.208488 -12.784867 -5.218799 -60.857513 -2.084459 1.709527 41.320367 3.930030 13.339925 -20.092822 -2.463000 0.000001 -37.135700 8.890013 0.224794 3.407076 7.204903 1.569772 -63.144066 2.185347 -3.217505 44.784356 -2.286545 -3.747427 -20.306993 0.951000 0.000000 -56.303799 0.374640 -2.193942 -5.551952 -0.535771 -2.415044 -4.233766 -5.287580 -2.591987 0.030657 10.340053 -9.745835 -13.996412 -2.564109 -0.082600 -2.206060 0.000000 0.000000 0.000000 2.057394 7.918154 3.700789 -74.527807 -0.792627 -13.393434 -0.880090 -44.735587 -0.073294 27.135884 -6.996991 -1.747349 -0.138142 0.200214 -0.000000 0.000000 0.000000 0.000000 0.000000 0.000000 0.000000 11.531521 -5.637851 2.749012 74.706228 14.932093 -17.635704 0.628852 41.141204 -0.069178 -17.849222 14.028382 -2.286595 0.136699 -0.347050 -0.000000 0.000000 0.000000 0.000000 0.000000 0.000000 0.000000 
13.772470 16.090080 1.031963 115.542026 -86.542376 -78.420977 -8.786913 -0.029087 3.276321 -12.885478 -5.735900 -62.759807 -2.015999 1.945216 43.383564 3.995543 13.287101 -20.892539 -2.658500 0.000000 -36.967900 8.935801 0.345093 3.461103 7.038814 1.603615 -65.186122 2.079584 -3.502883 47.009224 -2.330852 -3.693198 -21.138196 1.043900 0.000000 -56.200000 0.345496 -2.231584 -5.627472 -0.546361 -2.454683 -4.254219 -5.278171 -2.636736 0.080495 10.436389 -9.852661 -14.212316 -2.559455 -0.078679 -2.284888 0.000000 0.000000 0.000000 1.942875 8.001431 3.779670 -74.629191 -0.501385 -13.248115 -0.903202 -43.422153 -0.070615 27.043555 -6.894542 -1.714384 -0.133922 0.193051 -0.000000 0.000000 0.000000 0.000000 0.000000 0.000000 0.000000 11.738259 -5.786803 2.864258 74.837139 14.434781 -17.492607 0.685698 39.784374 -0.065930 -17.719809 13.922826 -2.251602 0.137406 -0.338034 -0.000000 0.000000 0.000000 0.000000 0.000000 0.000000 0.000000 
13.769372 15.988431 1.033511 112.680053 -86.469082 -74.801502 -8.720817 -0.059321 3.344170 -12.963641 -6.267947 -64.653731 -1.936227 2.181338 45.444492 4.059876 13.246408 -21.675521 -2.851200 0.000000 -36.838200 8.980532 0.470901 3.516368 6.856124 1.647344 -67.208151 1.959961 -3.783799 49.219214 -2.383682 -3.690362 -21.949854 1.140300 0.000000 -56.113600 0.320214 -2.271169 -5.702017 -0.555676 -2.496593 -4.274048 -5.268458 -2.683659 0.131078 10.531975 -9.951681 -14.420076 -2.555019 -0.074908 -2.361293 0.000000 0.000000 0.000000 1.824733 8.082313 3.858075 -74.700535 -0.221880 -13.166804 -0.924895 -42.080660 -0.068052 26.936428 -6.771746 -1.675819 -0.129700 0.186126 -0.000000 0.000000 0.000000 0.000000 0.000000 0.000000 0.000000 11.944247 -5.933655 2.977809 74.928706 13.928062 -17.395914 0.742896 38.410564 -0.062599 -17.543186 13.828816 -2.212809 0.137718 -0.329248 -0.000000 0.000000 0.000000 0.000000 0.000000 0.000000 0.000000 
13.766060 15.883872 1.035356 109.826268 -86.391950 -71.196850 -8.660330 -0.094719 3.410142 -13.015352 -6.806307 -66.534079 -1.845447 2.416694 47.497934 4.122978 13.218302 -22.442939 -3.041700 0.000000 -36.734400 9.021506 0.600252 3.573262 6.659363 1.708181 -69.200128 1.827201 -4.057640 51.401993 -2.445559 -3.740625 -22.741291 1.242000 0.000000 -56.035300 0.302526 -2.310402 -5.773995 -0.562874 -2.538708 -4.292068 -5.258379 -2.730598 0.185336 10.626878 -10.050114 -14.622863 -2.550437 -0.071206 -2.436160 0.000000 0.000000 0.000000 1.700624 8.174561 3.934221 -74.744805 0.029831 -13.146538 -0.944897 -40.707039 -0.065597 26.816491 -6.638984 -1.634353 -0.125481 0.179468 -0.000000 0.000000 0.000000 0.000000 0.000000 0.000000 0.000000 12.150110 -6.085578 3.088560 74.985047 13.425126 -17.362121 0.799135 37.014569 -0.059263 -17.333881 13.747536 -2.172117 0.137701 -0.320714 -0.000000 0.000000 0.000000 0.000000 0.000000 0.000000 0.000000 
13.762514 15.776755 1.037531 106.988745 -86.306026 -67.614809 -8.603956 -0.134703 3.475837 -13.041511 -7.359375 -68.394936 -1.743491 2.648753 49.534187 4.186743 13.211571 -23.192645 -3.231300 -0.000001 -36.657400 9.059794 0.734301 3.631546 6.441740 1.780938 -71.162807 1.681239 -4.324129 53.558343 -2.515433 -3.840504 -23.511001 1.350000 -0.000000 -55.966900 0.289857 -2.350490 -5.844681 -0.568949 -2.582108 -4.311559 -5.249609 -2.778861 0.231790 10.713425 -10.112407 -14.807672 -2.549672 -0.068158 -2.505626 0.000000 0.000000 0.000000 1.566497 8.241993 4.011348 -74.760685 0.301811 -13.211531 -0.961277 -39.344542 -0.063263 26.691332 -6.491413 -1.589485 -0.121177 0.173015 -0.000000 0.000000 0.000000 0.000000 0.000000 0.000000 0.000000 12.350790 -6.204005 3.199195 75.012162 12.883355 -17.432537 0.850328 35.625422 -0.056070 -17.110442 13.677211 -2.131726 0.137289 -0.312512 -0.000000 0.000000 0.000000 0.000000 0.000000 0.000000 0.000000 
13.746800 15.660530 1.057344 90.726289 -86.407042 -50.341926 -8.535254 -0.191766 3.881458 -12.354490 -8.752190 -70.791883 -1.513631 2.814719 51.630793 4.276718 13.321932 -23.716358 -3.355599 -0.000000 -36.884200 9.096644 0.797729 3.646513 6.792158 1.381044 -73.389456 1.628025 -4.661871 55.643926 -2.610529 -3.963115 -24.372396 1.481900 0.000000 -55.749500 0.923920 -2.510411 -6.263862 -0.403047 -2.808032 -4.405749 -5.224634 -3.012713 0.307159 10.629525 -10.155676 -14.975116 -2.537968 -0.065062 -2.560592 0.000000 0.000000 0.000000 1.191726 8.264945 4.094542 -74.824858 0.670112 -13.319180 -0.980951 -38.057081 -0.060801 26.565026 -6.332365 -1.541917 -0.116030 0.166018 -0.000000 0.000000 0.000000 0.000000 0.000000 0.000000 0.000000 12.279700 -6.407776 3.275932 74.937045 12.168165 -17.539169 0.915892 34.291587 -0.052531 -16.896229 13.600102 -2.091935 0.138292 -0.303849 -0.000000 0.000000 0.000000 0.000000 0.000000 0.000000 0.000000 
13.742326 15.549153 1.060504 88.672890 -86.272005 -47.557545 -8.487995 -0.241984 3.941749 -12.319308 -9.298571 -72.605260 -1.393697 3.034456 53.612804 4.341595 13.355825 -24.439032 -3.547800 -0.000000 -36.821500 9.127051 0.937802 3.710622 6.536739 1.500120 -75.278693 1.456954 -4.912642 57.729799 -2.694197 -4.144892 -25.106165 1.605901 0.000000 -55.667700 0.927082 -2.542166 -6.332486 -0.404845 -2.844461 -4.425396 -5.218509 -3.053873 0.349448 10.701120 -10.170607 -15.135312 -2.543360 -0.063017 -2.622351 0.000000 0.000000 0.000000 1.031535 8.337254 4.168069 -74.787972 0.928931 -13.530522 -0.988706 -36.701756 -0.058677 26.443731 -6.182103 -1.497448 -0.111537 0.159966 -0.000000 0.000000 0.000000 0.000000 0.000000 0.000000 0.000000 12.473531 -6.482250 3.382526 74.912097 11.593848 -17.844011 0.955311 32.894146 -0.049799 -16.697038 13.548644 -2.058148 0.137453 -0.296285 -0.000000 0.000000 0.000000 0.000000 0.000000 0.000000 0.000000 
13.737453 15.436313 1.064238 86.794860 -86.141132 -44.959319 -8.445356 -0.300390 3.998653 -12.251293 -9.842005 -74.390204 -1.264657 3.248213 55.570464 4.408473 13.413206 -25.156239 -3.744500 0.000000 -36.742901 9.152106 1.077279 3.775588 6.269806 1.636107 -77.122184 1.278017 -5.153023 59.769495 -2.782078 -4.355741 -25.825066 1.737500 0.000000 -55.570600 0.940652 -2.570804 -6.396788 -0.404456 -2.878401 -4.444215 -5.213536 -3.092367 0.389657 10.764180 -10.160027 -15.283033 -2.552380 -0.061544 -2.680191 0.000000 0.000000 0.000000 0.857693 8.413550 4.239133 -74.726817 1.177997 -13.811419 -0.991805 -35.360405 -0.056664 26.332877 -6.035237 -1.454778 -0.106989 0.154129 -0.000000 0.000000 0.000000 0.000000 0.000000 0.000000 0.000000 12.664062 -6.532341 3.486757 74.863379 11.007872 -18.281208 0.985434 31.494641 -0.047396 -16.532352 13.499380 -2.029162 0.136465 -0.289034 -0.000000 0.000000 0.000000 0.000000 0.000000 0.000000 0.000000 
13.732055 15.322284 1.068544 85.097249 -86.018136 -42.551834 -8.407119 -0.367214 4.051938 -12.149085 -10.377883 -76.145350 -1.127180 3.455577 57.503131 4.477652 13.494218 -25.870939 -3.947100 -0.000000 -36.640600 9.171801 1.214796 3.840933 5.995719 1.788558 -78.918004 1.093100 -5.383096 61.761263 -2.872467 -4.586558 -26.532124 1.876100 0.000000 -55.454800 0.966093 -2.595514 -6.456480 -0.401594 -2.909114 -4.462027 -5.209718 -3.127439 0.428152 10.818313 -10.124534 -15.418381 -2.565116 -0.060659 -2.734086 0.000000 0.000000 0.000000 0.669544 8.496610 4.307237 -74.641344 1.416653 -14.155829 -0.989907 -34.040433 -0.054766 26.236944 -5.892175 -1.414206 -0.102407 0.148498 -0.000000 0.000000 0.000000 0.000000 0.000000 0.000000 0.000000 12.851420 -6.557734 3.588341 74.790992 10.413566 -18.850717 1.005299 30.097050 -0.045351 -16.411602 13.445323 -2.005182 0.135394 -0.282088 0.000000 0.000000 0.000000 0.000000 0.000000 0.000000 0.000000 
